{
  "accessors": [
    {
      "bufferView": 2,
      "componentType": 5126,
      "count": 65532,
      "max": [
        4.0160741806030273,
        1.266819953918457,
        0.72511601448059082
      ],
      "min": [
        2.4164929389953613,
        -1.7888250350952148,
        -0.69551801681518555
      ],
      "type": "VEC3"
    },
    {
      "bufferView": 2,
      "byteOffset": 786384,
      "componentType": 5126,
      "count": 65532,
      "max": [
        0.99994289875030518,
        0.99995535612106323,
        0.99999725818634033
      ],
      "min": [
        -0.99994933605194092,
        -0.99991112947463989,
        -0.99996888637542725
      ],
      "type": "VEC3"
    },
    {
      "bufferView": 3,
      "componentType": 5126,
      "count": 65532,
      "max": [
        0.99997192621231079,
        0.99978333711624146,
        0.99998015165328979,
        1
      ],
      "min": [
        -0.99992275238037109,
        -0.99951416254043579,
        -0.99999266862869263,
        -1
      ],
      "type": "VEC4"
    },
    {
      "bufferView": 1,
      "componentType": 5126,
      "count": 65532,
      "max": [
        0.99272602796554565,
        0.9959070086479187
      ],
      "min": [
        0.0067300000227987766,
        0.0036299999337643385
      ],
      "type": "VEC2"
    },
    {
      "bufferView": 0,
      "componentType": 5125,
      "count": 329499,
      "max": [
        65531
      ],
      "min": [
        0
      ],
      "type": "SCALAR"
    },
    {
      "bufferView": 2,
      "byteOffset": 1572768,
      "componentType": 5126,
      "count": 65532,
      "max": [
        4.0175180435180664,
        1.0609469413757324,
        0.72936099767684937
      ],
      "min": [
        2.2328000068664551,
        -1.2502180337905884,
        -0.6662909984588623
      ],
      "type": "VEC3"
    },
    {
      "bufferView": 2,
      "byteOffset": 2359152,
      "componentType": 5126,
      "count": 65532,
      "max": [
        0.99999159574508667,
        0.99976712465286255,
        0.99996227025985718
      ],
      "min": [
        -0.99999850988388062,
        -0.99996769428253174,
        -0.99993950128555298
      ],
      "type": "VEC3"
    },
    {
      "bufferView": 3,
      "byteOffset": 1048512,
      "componentType": 5126,
      "count": 65532,
      "max": [
        0.99978440999984741,
        0.99978333711624146,
        0.99998855590820312,
        1
      ],
      "min": [
        -0.99994617700576782,
        -0.9993554949760437,
        -0.99999266862869263,
        -1
      ],
      "type": "VEC4"
    },
    {
      "bufferView": 1,
      "byteOffset": 524256,
      "componentType": 5126,
      "count": 65532,
      "max": [
        0.98861002922058105,
        0.99598699808120728
      ],
      "min": [
        0.0056599997915327549,
        0.0038199999835342169
      ],
      "type": "VEC2"
    },
    {
      "bufferView": 0,
      "byteOffset": 1317996,
      "componentType": 5125,
      "count": 304800,
      "max": [
        65531
      ],
      "min": [
        0
      ],
      "type": "SCALAR"
    },
    {
      "bufferView": 2,
      "byteOffset": 3145536,
      "componentType": 5126,
      "count": 65532,
      "max": [
        3.6678891181945801,
        1.2687540054321289,
        0.70604699850082397
      ],
      "min": [
        2.6938519477844238,
        -1.8143520355224609,
        -0.336434006690979
      ],
      "type": "VEC3"
    },
    {
      "bufferView": 2,
      "byteOffset": 3931920,
      "componentType": 5126,
      "count": 65532,
      "max": [
        0.99997329711914062,
        0.99994724988937378,
        0.99998694658279419
      ],
      "min": [
        -0.99999511241912842,
        -0.99997818470001221,
        -0.99993860721588135
      ],
      "type": "VEC3"
    },
    {
      "bufferView": 3,
      "byteOffset": 2097024,
      "componentType": 5126,
      "count": 65532,
      "max": [
        0.99997621774673462,
        0.99996840953826904,
        0.99995231628417969,
        1
      ],
      "min": [
        -0.99996107816696167,
        -0.99981933832168579,
        -0.99995344877243042,
        -1
      ],
      "type": "VEC4"
    },
    {
      "bufferView": 1,
      "byteOffset": 1048512,
      "componentType": 5126,
      "count": 65532,
      "max": [
        0.99287700653076172,
        0.99667298793792725
      ],
      "min": [
        0.0036899999249726534,
        0.034494999796152115
      ],
      "type": "VEC2"
    },
    {
      "bufferView": 0,
      "byteOffset": 2537196,
      "componentType": 5125,
      "count": 324081,
      "max": [
        65531
      ],
      "min": [
        0
      ],
      "type": "SCALAR"
    },
    {
      "bufferView": 2,
      "byteOffset": 4718304,
      "componentType": 5126,
      "count": 65532,
      "max": [
        3.5014190673828125,
        -0.11989100277423859,
        0.70610898733139038
      ],
      "min": [
        2.5424020290374756,
        -1.8176209926605225,
        0.034729000180959702
      ],
      "type": "VEC3"
    },
    {
      "bufferView": 2,
      "byteOffset": 5504688,
      "componentType": 5126,
      "count": 65532,
      "max": [
        0.99994152784347534,
        0.99999082088470459,
        0.99998080730438232
      ],
      "min": [
        -0.99996113777160645,
        -0.99995827674865723,
        -0.99977314472198486
      ],
      "type": "VEC3"
    },
    {
      "bufferView": 3,
      "byteOffset": 3145536,
      "componentType": 5126,
      "count": 65532,
      "max": [
        0.99959874153137207,
        0.99996840953826904,
        0.99982666969299316,
        1
      ],
      "min": [
        -0.99997591972351074,
        -0.99979954957962036,
        -0.99986124038696289,
        -1
      ],
      "type": "VEC4"
    },
    {
      "bufferView": 1,
      "byteOffset": 1572768,
      "componentType": 5126,
      "count": 65532,
      "max": [
        0.95932298898696899,
        0.99599999189376831
      ],
      "min": [
        0.0040350002236664295,
        0.020176000893115997
      ],
      "type": "VEC2"
    },
    {
      "bufferView": 0,
      "byteOffset": 3833520,
      "componentType": 5125,
      "count": 320490,
      "max": [
        65531
      ],
      "min": [
        0
      ],
      "type": "SCALAR"
    },
    {
      "bufferView": 2,
      "byteOffset": 6291072,
      "componentType": 5126,
      "count": 65532,
      "max": [
        3.6874809265136719,
        0.071292996406555176,
        0.70518398284912109
      ],
      "min": [
        2.1835360527038574,
        -1.5532079935073853,
        -0.33486300706863403
      ],
      "type": "VEC3"
    },
    {
      "bufferView": 2,
      "byteOffset": 7077456,
      "componentType": 5126,
      "count": 65532,
      "max": [
        0.99988138675689697,
        0.99996024370193481,
        0.99999147653579712
      ],
      "min": [
        -0.99997419118881226,
        -0.99997168779373169,
        -0.99998760223388672
      ],
      "type": "VEC3"
    },
    {
      "bufferView": 3,
      "byteOffset": 4194048,
      "componentType": 5126,
      "count": 65532,
      "max": [
        0.99969738721847534,
        0.99949830770492554,
        0.99999469518661499,
        1
      ],
      "min": [
        -0.99938404560089111,
        -0.99983006715774536,
        -0.99997603893280029,
        -1
      ],
      "type": "VEC4"
    },
    {
      "bufferView": 1,
      "byteOffset": 2097024,
      "componentType": 5126,
      "count": 65532,
      "max": [
        0.99044197797775269,
        0.99598699808120728
      ],
      "min": [
        0.0030759999062865973,
        0.0038749999366700649
      ],
      "type": "VEC2"
    },
    {
      "bufferView": 0,
      "byteOffset": 5115480,
      "componentType": 5125,
      "count": 319077,
      "max": [
        65531
      ],
      "min": [
        0
      ],
      "type": "SCALAR"
    },
    {
      "bufferView": 2,
      "byteOffset": 7863840,
      "componentType": 5126,
      "count": 34691,
      "max": [
        3.1465721130371094,
        0.31517800688743591,
        0.63537198305130005
      ],
      "min": [
        2.1806089878082275,
        -1.5731550455093384,
        -0.22112399339675903
      ],
      "type": "VEC3"
    },
    {
      "bufferView": 2,
      "byteOffset": 8280132,
      "componentType": 5126,
      "count": 34691,
      "max": [
        0.99948906898498535,
        0.99985301494598389,
        0.99998503923416138
      ],
      "min": [
        -0.99990886449813843,
        -0.99728494882583618,
        -0.99989151954650879
      ],
      "type": "VEC3"
    },
    {
      "bufferView": 3,
      "byteOffset": 5242560,
      "componentType": 5126,
      "count": 34691,
      "max": [
        0.99981939792633057,
        0.99949830770492554,
        0.99998855590820312,
        1
      ],
      "min": [
        -0.99968063831329346,
        -0.9996986985206604,
        -0.99753767251968384,
        -1
      ],
      "type": "VEC4"
    },
    {
      "bufferView": 1,
      "byteOffset": 2621280,
      "componentType": 5126,
      "count": 34691,
      "max": [
        0.91008597612380981,
        0.99588501453399658
      ],
      "min": [
        0.0028069999534636736,
        0.0031379999127238989
      ],
      "type": "VEC2"
    },
    {
      "bufferView": 0,
      "byteOffset": 6391788,
      "componentType": 5125,
      "count": 159249,
      "max": [
        34690
      ],
      "min": [
        0
      ],
      "type": "SCALAR"
    },
    {
      "bufferView": 2,
      "byteOffset": 8696424,
      "componentType": 5126,
      "count": 65532,
      "max": [
        3.8882761001586914,
        0.98274600505828857,
        0.39899000525474548
      ],
      "min": [
        2.544867992401123,
        -1.6861389875411987,
        -0.69551801681518555
      ],
      "type": "VEC3"
    },
    {
      "bufferView": 2,
      "byteOffset": 9482808,
      "componentType": 5126,
      "count": 65532,
      "max": [
        0.99997949600219727,
        0.99998199939727783,
        0.99986773729324341
      ],
      "min": [
        -0.99997729063034058,
        -0.99999654293060303,
        -0.99996721744537354
      ],
      "type": "VEC3"
    },
    {
      "bufferView": 3,
      "byteOffset": 5797616,
      "componentType": 5126,
      "count": 65532,
      "max": [
        0.99993479251861572,
        0.99979889392852783,
        0.99994832277297974,
        1
      ],
      "min": [
        -0.99999505281448364,
        -0.99999421834945679,
        -0.99996316432952881,
        -1
      ],
      "type": "VEC4"
    },
    {
      "bufferView": 1,
      "byteOffset": 2898808,
      "componentType": 5126,
      "count": 65532,
      "max": [
        0.99524098634719849,
        0.99897098541259766
      ],
      "min": [
        -0.00072800001362338662,
        0.0036649999674409628
      ],
      "type": "VEC2"
    },
    {
      "bufferView": 0,
      "byteOffset": 7028784,
      "componentType": 5125,
      "count": 253635,
      "max": [
        65531
      ],
      "min": [
        0
      ],
      "type": "SCALAR"
    },
    {
      "bufferView": 2,
      "byteOffset": 10269192,
      "componentType": 5126,
      "count": 65532,
      "max": [
        4.0175180435180664,
        1.2703260183334351,
        0.72634702920913696
      ],
      "min": [
        2.5097289085388184,
        -1.557299017906189,
        -0.64594298601150513
      ],
      "type": "VEC3"
    },
    {
      "bufferView": 2,
      "byteOffset": 11055576,
      "componentType": 5126,
      "count": 65532,
      "max": [
        0.99992328882217407,
        0.99983227252960205,
        0.99996817111968994
      ],
      "min": [
        -0.99997729063034058,
        -0.99999415874481201,
        -0.99995714426040649
      ],
      "type": "VEC3"
    },
    {
      "bufferView": 3,
      "byteOffset": 6846128,
      "componentType": 5126,
      "count": 65532,
      "max": [
        0.99999415874481201,
        0.99997627735137939,
        0.99994754791259766,
        1
      ],
      "min": [
        -0.99996751546859741,
        -0.99998778104782104,
        -0.99995845556259155,
        -1
      ],
      "type": "VEC4"
    },
    {
      "bufferView": 1,
      "byteOffset": 3423064,
      "componentType": 5126,
      "count": 65532,
      "max": [
        0.99379599094390869,
        0.99630701541900635
      ],
      "min": [
        0.0030829999595880508,
        0.0031840000301599503
      ],
      "type": "VEC2"
    },
    {
      "bufferView": 0,
      "byteOffset": 8043324,
      "componentType": 5125,
      "count": 280014,
      "max": [
        65531
      ],
      "min": [
        0
      ],
      "type": "SCALAR"
    },
    {
      "bufferView": 2,
      "byteOffset": 11841960,
      "componentType": 5126,
      "count": 65532,
      "max": [
        3.6180009841918945,
        -0.1195790022611618,
        0.39480799436569214
      ],
      "min": [
        2.6972360610961914,
        -1.5559799671173096,
        -0.29769301414489746
      ],
      "type": "VEC3"
    },
    {
      "bufferView": 2,
      "byteOffset": 12628344,
      "componentType": 5126,
      "count": 65532,
      "max": [
        0.99998253583908081,
        0.99997246265411377,
        0.99998223781585693
      ],
      "min": [
        -0.99991530179977417,
        -0.99997031688690186,
        -0.99996024370193481
      ],
      "type": "VEC3"
    },
    {
      "bufferView": 3,
      "byteOffset": 7894640,
      "componentType": 5126,
      "count": 65532,
      "max": [
        0.99994891881942749,
        0.9999958872795105,
        0.99997627735137939,
        1
      ],
      "min": [
        -0.99993497133255005,
        -0.99994385242462158,
        -0.99998968839645386,
        -1
      ],
      "type": "VEC4"
    },
    {
      "bufferView": 1,
      "byteOffset": 3947320,
      "componentType": 5126,
      "count": 65532,
      "max": [
        0.99426001310348511,
        0.99633502960205078
      ],
      "min": [
        0.0032629999332129955,
        0.0038920000661164522
      ],
      "type": "VEC2"
    },
    {
      "bufferView": 0,
      "byteOffset": 9163380,
      "componentType": 5125,
      "count": 269415,
      "max": [
        65531
      ],
      "min": [
        0
      ],
      "type": "SCALAR"
    },
    {
      "bufferView": 2,
      "byteOffset": 13414728,
      "componentType": 5126,
      "count": 65532,
      "max": [
        3.6798100471496582,
        -0.0531110018491745,
        0.70437997579574585
      ],
      "min": [
        2.2363460063934326,
        -1.5424970388412476,
        -0.33076399564743042
      ],
      "type": "VEC3"
    },
    {
      "bufferView": 2,
      "byteOffset": 14201112,
      "componentType": 5126,
      "count": 65532,
      "max": [
        0.99999231100082397,
        0.99997246265411377,
        0.99996954202651978
      ],
      "min": [
        -0.99993997812271118,
        -0.99998354911804199,
        -0.99996989965438843
      ],
      "type": "VEC3"
    },
    {
      "bufferView": 3,
      "byteOffset": 8943152,
      "componentType": 5126,
      "count": 65532,
      "max": [
        0.99999970197677612,
        0.99997633695602417,
        0.99994754791259766,
        1
      ],
      "min": [
        -0.99991929531097412,
        -0.99992847442626953,
        -0.99999654293060303,
        -1
      ],
      "type": "VEC4"
    },
    {
      "bufferView": 1,
      "byteOffset": 4471576,
      "componentType": 5126,
      "count": 65532,
      "max": [
        0.99358999729156494,
        0.99575400352478027
      ],
      "min": [
        0.003444999922066927,
        0.0036669999826699495
      ],
      "type": "VEC2"
    },
    {
      "bufferView": 0,
      "byteOffset": 10241040,
      "componentType": 5125,
      "count": 272400,
      "max": [
        65531
      ],
      "min": [
        0
      ],
      "type": "SCALAR"
    },
    {
      "bufferView": 2,
      "byteOffset": 14987496,
      "componentType": 5126,
      "count": 25134,
      "max": [
        3.1496999263763428,
        -0.068983003497123718,
        0.53923100233078003
      ],
      "min": [
        2.1806089878082275,
        -1.6095550060272217,
        -0.20021100342273712
      ],
      "type": "VEC3"
    },
    {
      "bufferView": 2,
      "byteOffset": 15289104,
      "componentType": 5126,
      "count": 25134,
      "max": [
        0.99998897314071655,
        0.99996256828308105,
        0.99941611289978027
      ],
      "min": [
        -0.99988752603530884,
        -0.99996680021286011,
        -0.99994122982025146
      ],
      "type": "VEC3"
    },
    {
      "bufferView": 3,
      "byteOffset": 9991664,
      "componentType": 5126,
      "count": 25134,
      "max": [
        0.9999358057975769,
        0.99987518787384033,
        0.99973410367965698,
        1
      ],
      "min": [
        -0.99965232610702515,
        -0.99955278635025024,
        -0.9998435378074646,
        -1
      ],
      "type": "VEC4"
    },
    {
      "bufferView": 1,
      "byteOffset": 4995832,
      "componentType": 5126,
      "count": 25134,
      "max": [
        0.99225699901580811,
        0.99621802568435669
      ],
      "min": [
        0.0026889999862760305,
        0.0030920000281184912
      ],
      "type": "VEC2"
    },
    {
      "bufferView": 0,
      "byteOffset": 11330640,
      "componentType": 5125,
      "count": 107232,
      "max": [
        25133
      ],
      "min": [
        0
      ],
      "type": "SCALAR"
    }
  ],
  "asset": {
    "extras": {
      "author": "TheDarkSunProject (https://sketchfab.com/darksunproject)",
      "license": "CC-BY-4.0 (http://creativecommons.org/licenses/by/4.0/)",
      "source": "https://sketchfab.com/models/a8fcc4dbeaee4ec5b3e367cbe30bc1a8",
      "title": "Mammoth from the NAT museum, San Diego"
    },
    "generator": "Sketchfab-3.18.2",
    "version": "2.0"
  },
  "bufferViews": [
    {
      "buffer": 0,
      "byteLength": 11759568,
      "byteOffset": 0,
      "name": "floatBufferViews",
      "target": 34963
    },
    {
      "buffer": 0,
      "byteLength": 5196904,
      "byteOffset": 11759568,
      "byteStride": 8,
      "name": "floatBufferViews",
      "target": 34962
    },
    {
      "buffer": 0,
      "byteLength": 15590712,
      "byteOffset": 16956472,
      "byteStride": 12,
      "name": "floatBufferViews",
      "target": 34962
    },
    {
      "buffer": 0,
      "byteLength": 10393808,
      "byteOffset": 32547184,
      "byteStride": 16,
      "name": "floatBufferViews",
      "target": 34962
    }
  ],
  "buffers": [
    {
      "byteLength": 42940992,
      "uri": "scene.bin"
    }
  ],
  "extensionsUsed": [
    "KHR_materials_unlit"
  ],
  "images": [
    {
      "uri": "textures/material_1_baseColor.jpeg"
    },
    {
      "uri": "textures/material_0_baseColor.jpeg"
    }
  ],
  "materials": [
    {
      "doubleSided": true,
      "emissiveFactor": [
        0,
        0,
        0
      ],
      "extensions": {
        "KHR_materials_unlit": {}
      },
      "name": "material_0",
      "pbrMetallicRoughness": {
        "baseColorFactor": [
          1,
          1,
          1,
          1
        ],
        "baseColorTexture": {
          "index": 1,
          "texCoord": 0
        },
        "metallicFactor": 0,
        "roughnessFactor": 1
      }
    },
    {
      "doubleSided": true,
      "emissiveFactor": [
        0,
        0,
        0
      ],
      "extensions": {
        "KHR_materials_unlit": {}
      },
      "name": "material_1",
      "pbrMetallicRoughness": {
        "baseColorFactor": [
          1,
          1,
          1,
          1
        ],
        "baseColorTexture": {
          "index": 0,
          "texCoord": 0
        },
        "metallicFactor": 0,
        "roughnessFactor": 1
      }
    }
  ],
  "meshes": [
    {
      "primitives": [
        {
          "attributes": {
            "NORMAL": 1,
            "POSITION": 0,
            "TANGENT": 2,
            "TEXCOORD_0": 3
          },
          "indices": 4,
          "material": 0,
          "mode": 4
        }
      ]
    },
    {
      "primitives": [
        {
          "attributes": {
            "NORMAL": 6,
            "POSITION": 5,
            "TANGENT": 7,
            "TEXCOORD_0": 8
          },
          "indices": 9,
          "material": 0,
          "mode": 4
        }
      ]
    },
    {
      "primitives": [
        {
          "attributes": {
            "NORMAL": 11,
            "POSITION": 10,
            "TANGENT": 12,
            "TEXCOORD_0": 13
          },
          "indices": 14,
          "material": 0,
          "mode": 4
        }
      ]
    },
    {
      "primitives": [
        {
          "attributes": {
            "NORMAL": 16,
            "POSITION": 15,
            "TANGENT": 17,
            "TEXCOORD_0": 18
          },
          "indices": 19,
          "material": 0,
          "mode": 4
        }
      ]
    },
    {
      "primitives": [
        {
          "attributes": {
            "NORMAL": 21,
            "POSITION": 20,
            "TANGENT": 22,
            "TEXCOORD_0": 23
          },
          "indices": 24,
          "material": 0,
          "mode": 4
        }
      ]
    },
    {
      "primitives": [
        {
          "attributes": {
            "NORMAL": 26,
            "POSITION": 25,
            "TANGENT": 27,
            "TEXCOORD_0": 28
          },
          "indices": 29,
          "material": 0,
          "mode": 4
        }
      ]
    },
    {
      "primitives": [
        {
          "attributes": {
            "NORMAL": 31,
            "POSITION": 30,
            "TANGENT": 32,
            "TEXCOORD_0": 33
          },
          "indices": 34,
          "material": 1,
          "mode": 4
        }
      ]
    },
    {
      "primitives": [
        {
          "attributes": {
            "NORMAL": 36,
            "POSITION": 35,
            "TANGENT": 37,
            "TEXCOORD_0": 38
          },
          "indices": 39,
          "material": 1,
          "mode": 4
        }
      ]
    },
    {
      "primitives": [
        {
          "attributes": {
            "NORMAL": 41,
            "POSITION": 40,
            "TANGENT": 42,
            "TEXCOORD_0": 43
          },
          "indices": 44,
          "material": 1,
          "mode": 4
        }
      ]
    },
    {
      "primitives": [
        {
          "attributes": {
            "NORMAL": 46,
            "POSITION": 45,
            "TANGENT": 47,
            "TEXCOORD_0": 48
          },
          "indices": 49,
          "material": 1,
          "mode": 4
        }
      ]
    },
    {
      "primitives": [
        {
          "attributes": {
            "NORMAL": 51,
            "POSITION": 50,
            "TANGENT": 52,
            "TEXCOORD_0": 53
          },
          "indices": 54,
          "material": 1,
          "mode": 4
        }
      ]
    }
  ],
  "nodes": [
    {
      "children": [
        1
      ],
      "name": "RootNode (gltf orientation matrix)",
      "rotation": [
        -0.70710678118654746,
        -0,
        -0,
        0.70710678118654757
      ]
    },
    {
      "children": [
        2
      ],
      "matrix": [
        0.93683516979217529,
        0,
        -0.34977123141288757,
        0,
        -0.1443932056427002,
        0.91081178188323975,
        -0.38674601912498474,
        0,
        0.31857576966285706,
        0.41282185912132263,
        0.85328048467636108,
        0,
        0.14803120493888855,
        -0.032308708876371384,
        0.96925908327102661,
        1
      ],
      "name": "RootNode (model correction matrix)"
    },
    {
      "children": [
        3,
        4,
        5,
        6,
        7,
        8,
        9,
        10,
        11,
        12,
        13
      ],
      "name": "mammoth.obj.cleaner"
    },
    {
      "mesh": 0,
      "name": ""
    },
    {
      "mesh": 1,
      "name": ""
    },
    {
      "mesh": 2,
      "name": ""
    },
    {
      "mesh": 3,
      "name": ""
    },
    {
      "mesh": 4,
      "name": ""
    },
    {
      "mesh": 5,
      "name": ""
    },
    {
      "mesh": 6,
      "name": ""
    },
    {
      "mesh": 7,
      "name": ""
    },
    {
      "mesh": 8,
      "name": ""
    },
    {
      "mesh": 9,
      "name": ""
    },
    {
      "mesh": 10,
      "name": ""
    }
  ],
  "samplers": [
    {
      "magFilter": 9729,
      "minFilter": 9987,
      "wrapS": 10497,
      "wrapT": 10497
    }
  ],
  "scene": 0,
  "scenes": [
    {
      "name": "OSG_Scene",
      "nodes": [
        0
      ]
    }
  ],
  "textures": [
    {
      "sampler": 0,
      "source": 0
    },
    {
      "sampler": 0,
      "source": 1
    }
  ]
}

